<?xml version="1.0" encoding="UTF-8" standalone="no"?>
<!DOCTYPE svg PUBLIC "-//W3C//DTD SVG 1.1//EN"
 "http://www.w3.org/Graphics/SVG/1.1/DTD/svg11.dtd">
<!-- Generated by graphviz version 2.47.0 (20210316.0004)
 -->
<!-- Title: dependencies Pages: 1 -->
<svg width="504pt" height="211pt"
 viewBox="0.00 0.00 504.00 211.00" xmlns="http://www.w3.org/2000/svg" xmlns:xlink="http://www.w3.org/1999/xlink">
<g id="graph0" class="graph" transform="scale(1 1) rotate(0) translate(4 207)">
<title>dependencies</title>
<polygon fill="white" stroke="transparent" points="-4,4 -4,-207 500,-207 500,4 -4,4"/>
<text text-anchor="start" x="227.01" y="-42.4" font-family="Times-12" font-weight="bold" font-size="14.00">Legend</text>
<polygon fill="#ffffb3" stroke="transparent" points="14,-10 14,-30 34,-30 34,-10 14,-10"/>
<text text-anchor="start" x="37.63" y="-15.4" font-family="Times-12" font-size="14.00"> &#160;Declarations</text>
<polygon fill="#8dd3c7" stroke="transparent" points="127,-10 127,-30 147,-30 147,-10 127,-10"/>
<text text-anchor="start" x="150.73" y="-15.4" font-family="Times-12" font-size="14.00"> &#160;Module</text>
<polygon fill="#80b1d3" stroke="transparent" points="213,-10 213,-30 233,-30 233,-10 213,-10"/>
<text text-anchor="start" x="236.78" y="-15.4" font-family="Times-12" font-size="14.00"> &#160;Bootstrap</text>
<polygon fill="#fdb462" stroke="transparent" points="310,-10 310,-30 330,-30 330,-10 310,-10"/>
<text text-anchor="start" x="333.67" y="-15.4" font-family="Times-12" font-size="14.00"> &#160;Providers</text>
<polygon fill="#fb8072" stroke="transparent" points="406,-10 406,-30 426,-30 426,-10 406,-10"/>
<text text-anchor="start" x="429.73" y="-15.4" font-family="Times-12" font-size="14.00"> &#160;Exports</text>
<g id="clust1" class="cluster">
<title>cluster_CoreModule</title>
<polygon fill="none" stroke="black" stroke-dasharray="1,5" points="97,-70 97,-195 399,-195 399,-70 97,-70"/>
</g>
<g id="clust6" class="cluster">
<title>cluster_CoreModule_providers</title>
<polygon fill="none" stroke="black" points="105,-78 105,-130 391,-130 391,-78 105,-78"/>
</g>
<!-- HTTPListener -->
<g id="node1" class="node">
<title>HTTPListener</title>
<ellipse fill="#fdb462" stroke="black" cx="316" cy="-104" rx="66.63" ry="18"/>
<text text-anchor="middle" x="316" y="-99.8" font-family="Times,serif" font-size="14.00">HTTPListener</text>
</g>
<!-- CoreModule -->
<g id="node3" class="node">
<title>CoreModule</title>
<polygon fill="#8dd3c7" stroke="black" points="359.26,-187 356.26,-191 335.26,-191 332.26,-187 272.74,-187 272.74,-151 359.26,-151 359.26,-187"/>
<text text-anchor="middle" x="316" y="-164.8" font-family="Times,serif" font-size="14.00">CoreModule</text>
</g>
<!-- HTTPListener&#45;&gt;CoreModule -->
<g id="edge1" class="edge">
<title>HTTPListener&#45;&gt;CoreModule</title>
<path fill="none" stroke="black" d="M301.54,-121.76C301.54,-121.76 301.54,-140.81 301.54,-140.81"/>
<polygon fill="black" stroke="black" points="298.04,-140.81 301.54,-150.81 305.04,-140.81 298.04,-140.81"/>
</g>
<!-- HTTPListener&#45;&gt;CoreModule -->
<g id="edge2" class="edge">
<title>HTTPListener&#45;&gt;CoreModule</title>
<path fill="none" stroke="black" d="M330.46,-121.76C330.46,-121.76 330.46,-140.81 330.46,-140.81"/>
<polygon fill="black" stroke="black" points="326.96,-140.81 330.46,-150.81 333.96,-140.81 326.96,-140.81"/>
</g>
<!-- HTTPStatus -->
<g id="node2" class="node">
<title>HTTPStatus</title>
<ellipse fill="#fdb462" stroke="black" cx="172" cy="-104" rx="58.56" ry="18"/>
<text text-anchor="middle" x="172" y="-99.8" font-family="Times,serif" font-size="14.00">HTTPStatus</text>
</g>
<!-- HTTPStatus&#45;&gt;CoreModule -->
<g id="edge3" class="edge">
<title>HTTPStatus&#45;&gt;CoreModule</title>
<path fill="none" stroke="black" d="M172,-122.11C172,-141.34 172,-169 172,-169 172,-169 262.4,-169 262.4,-169"/>
<polygon fill="black" stroke="black" points="262.4,-172.5 272.4,-169 262.4,-165.5 262.4,-172.5"/>
</g>
</g>
</svg>
