<?xml version="1.0" encoding="UTF-8" standalone="no"?>
<!DOCTYPE svg PUBLIC "-//W3C//DTD SVG 1.1//EN"
 "http://www.w3.org/Graphics/SVG/1.1/DTD/svg11.dtd">
<!-- Generated by graphviz version 2.47.0 (20210316.0004)
 -->
<!-- Title: dependencies Pages: 1 -->
<svg width="637pt" height="211pt"
 viewBox="0.00 0.00 637.00 211.00" xmlns="http://www.w3.org/2000/svg" xmlns:xlink="http://www.w3.org/1999/xlink">
<g id="graph0" class="graph" transform="scale(1 1) rotate(0) translate(4 207)">
<title>dependencies</title>
<polygon fill="white" stroke="transparent" points="-4,4 -4,-207 633,-207 633,4 -4,4"/>
<text text-anchor="start" x="293.51" y="-42.4" font-family="Times-12" font-weight="bold" font-size="14.00">Legend</text>
<polygon fill="#ffffb3" stroke="transparent" points="80.5,-10 80.5,-30 100.5,-30 100.5,-10 80.5,-10"/>
<text text-anchor="start" x="104.13" y="-15.4" font-family="Times-12" font-size="14.00"> &#160;Declarations</text>
<polygon fill="#8dd3c7" stroke="transparent" points="193.5,-10 193.5,-30 213.5,-30 213.5,-10 193.5,-10"/>
<text text-anchor="start" x="217.23" y="-15.4" font-family="Times-12" font-size="14.00"> &#160;Module</text>
<polygon fill="#80b1d3" stroke="transparent" points="279.5,-10 279.5,-30 299.5,-30 299.5,-10 279.5,-10"/>
<text text-anchor="start" x="303.28" y="-15.4" font-family="Times-12" font-size="14.00"> &#160;Bootstrap</text>
<polygon fill="#fdb462" stroke="transparent" points="376.5,-10 376.5,-30 396.5,-30 396.5,-10 376.5,-10"/>
<text text-anchor="start" x="400.17" y="-15.4" font-family="Times-12" font-size="14.00"> &#160;Providers</text>
<polygon fill="#fb8072" stroke="transparent" points="472.5,-10 472.5,-30 492.5,-30 492.5,-10 472.5,-10"/>
<text text-anchor="start" x="496.23" y="-15.4" font-family="Times-12" font-size="14.00"> &#160;Exports</text>
<g id="clust1" class="cluster">
<title>cluster_UsersModule</title>
<polygon fill="none" stroke="black" stroke-dasharray="1,5" points="8,-70 8,-195 621,-195 621,-70 8,-70"/>
</g>
<g id="clust2" class="cluster">
<title>cluster_UsersModule_declarations</title>
<polygon fill="none" stroke="black" points="292,-78 292,-130 613,-130 613,-78 292,-78"/>
</g>
<g id="clust5" class="cluster">
<title>cluster_UsersModule_imports</title>
<polygon fill="none" stroke="black" points="16,-78 16,-130 284,-130 284,-78 16,-78"/>
</g>
<!-- UsersDetailsComponent -->
<g id="node1" class="node">
<title>UsersDetailsComponent</title>
<polygon fill="#ffffb3" stroke="black" points="605.36,-122 452.64,-122 452.64,-86 605.36,-86 605.36,-122"/>
<text text-anchor="middle" x="529" y="-99.8" font-family="Times,serif" font-size="14.00">UsersDetailsComponent</text>
</g>
<!-- UsersModule -->
<g id="node3" class="node">
<title>UsersModule</title>
<polygon fill="#8dd3c7" stroke="black" points="342.92,-187 339.92,-191 318.92,-191 315.92,-187 251.08,-187 251.08,-151 342.92,-151 342.92,-187"/>
<text text-anchor="middle" x="297" y="-164.8" font-family="Times,serif" font-size="14.00">UsersModule</text>
</g>
<!-- UsersDetailsComponent&#45;&gt;UsersModule -->
<g id="edge1" class="edge">
<title>UsersDetailsComponent&#45;&gt;UsersModule</title>
<path fill="none" stroke="black" d="M529,-122.11C529,-141.34 529,-169 529,-169 529,-169 352.84,-169 352.84,-169"/>
<polygon fill="black" stroke="black" points="352.84,-165.5 342.84,-169 352.84,-172.5 352.84,-165.5"/>
</g>
<!-- UsersListComponent -->
<g id="node2" class="node">
<title>UsersListComponent</title>
<polygon fill="#ffffb3" stroke="black" points="434.48,-122 299.52,-122 299.52,-86 434.48,-86 434.48,-122"/>
<text text-anchor="middle" x="367" y="-99.8" font-family="Times,serif" font-size="14.00">UsersListComponent</text>
</g>
<!-- UsersListComponent&#45;&gt;UsersModule -->
<g id="edge2" class="edge">
<title>UsersListComponent&#45;&gt;UsersModule</title>
<path fill="none" stroke="black" d="M321.11,-122.11C321.11,-122.11 321.11,-140.99 321.11,-140.99"/>
<polygon fill="black" stroke="black" points="317.61,-140.99 321.11,-150.99 324.61,-140.99 317.61,-140.99"/>
</g>
<!-- SharedModule -->
<g id="node4" class="node">
<title>SharedModule</title>
<polygon fill="#8dd3c7" stroke="black" points="276.42,-122 273.42,-126 252.42,-126 249.42,-122 177.58,-122 177.58,-86 276.42,-86 276.42,-122"/>
<text text-anchor="middle" x="227" y="-99.8" font-family="Times,serif" font-size="14.00">SharedModule</text>
</g>
<!-- SharedModule&#45;&gt;UsersModule -->
<g id="edge3" class="edge">
<title>SharedModule&#45;&gt;UsersModule</title>
<path fill="none" stroke="black" d="M263.75,-122.11C263.75,-122.11 263.75,-140.99 263.75,-140.99"/>
<polygon fill="black" stroke="black" points="260.25,-140.99 263.75,-150.99 267.25,-140.99 260.25,-140.99"/>
</g>
<!-- UsersRoutingModule -->
<g id="node5" class="node">
<title>UsersRoutingModule</title>
<polygon fill="#8dd3c7" stroke="black" points="160.04,-122 157.04,-126 136.04,-126 133.04,-122 23.96,-122 23.96,-86 160.04,-86 160.04,-122"/>
<text text-anchor="middle" x="92" y="-99.8" font-family="Times,serif" font-size="14.00">UsersRoutingModule</text>
</g>
<!-- UsersRoutingModule&#45;&gt;UsersModule -->
<g id="edge4" class="edge">
<title>UsersRoutingModule&#45;&gt;UsersModule</title>
<path fill="none" stroke="black" d="M92,-122.11C92,-141.34 92,-169 92,-169 92,-169 241.25,-169 241.25,-169"/>
<polygon fill="black" stroke="black" points="241.25,-172.5 251.25,-169 241.25,-165.5 241.25,-172.5"/>
</g>
</g>
</svg>
