<?xml version="1.0" encoding="UTF-8" standalone="no"?>
<!DOCTYPE svg PUBLIC "-//W3C//DTD SVG 1.1//EN"
 "http://www.w3.org/Graphics/SVG/1.1/DTD/svg11.dtd">
<!-- Generated by graphviz version 2.47.0 (20210316.0004)
 -->
<!-- Title: dependencies Pages: 1 -->
<svg width="504pt" height="284pt"
 viewBox="0.00 0.00 504.00 284.00" xmlns="http://www.w3.org/2000/svg" xmlns:xlink="http://www.w3.org/1999/xlink">
<g id="graph0" class="graph" transform="scale(1 1) rotate(0) translate(4 280)">
<title>dependencies</title>
<polygon fill="white" stroke="transparent" points="-4,4 -4,-280 500,-280 500,4 -4,4"/>
<text text-anchor="start" x="227.01" y="-42.4" font-family="Times-12" font-weight="bold" font-size="14.00">Legend</text>
<polygon fill="#ffffb3" stroke="transparent" points="14,-10 14,-30 34,-30 34,-10 14,-10"/>
<text text-anchor="start" x="37.63" y="-15.4" font-family="Times-12" font-size="14.00"> &#160;Declarations</text>
<polygon fill="#8dd3c7" stroke="transparent" points="127,-10 127,-30 147,-30 147,-10 127,-10"/>
<text text-anchor="start" x="150.73" y="-15.4" font-family="Times-12" font-size="14.00"> &#160;Module</text>
<polygon fill="#80b1d3" stroke="transparent" points="213,-10 213,-30 233,-30 233,-10 213,-10"/>
<text text-anchor="start" x="236.78" y="-15.4" font-family="Times-12" font-size="14.00"> &#160;Bootstrap</text>
<polygon fill="#fdb462" stroke="transparent" points="310,-10 310,-30 330,-30 330,-10 310,-10"/>
<text text-anchor="start" x="333.67" y="-15.4" font-family="Times-12" font-size="14.00"> &#160;Providers</text>
<polygon fill="#fb8072" stroke="transparent" points="406,-10 406,-30 426,-30 426,-10 406,-10"/>
<text text-anchor="start" x="429.73" y="-15.4" font-family="Times-12" font-size="14.00"> &#160;Exports</text>
<g id="clust1" class="cluster">
<title>cluster_WelcomeModule</title>
<polygon fill="none" stroke="black" stroke-dasharray="1,5" points="74,-70 74,-268 422,-268 422,-70 74,-70"/>
</g>
<g id="clust2" class="cluster">
<title>cluster_WelcomeModule_declarations</title>
<polygon fill="none" stroke="black" points="264,-78 264,-130 414,-130 414,-78 264,-78"/>
</g>
<g id="clust4" class="cluster">
<title>cluster_WelcomeModule_imports</title>
<polygon fill="none" stroke="black" points="82,-78 82,-130 256,-130 256,-78 82,-78"/>
</g>
<g id="clust5" class="cluster">
<title>cluster_WelcomeModule_exports</title>
<polygon fill="none" stroke="black" points="176,-208 176,-260 330,-260 330,-208 176,-208"/>
</g>
<!-- WelcomeComponent -->
<g id="node1" class="node">
<title>WelcomeComponent</title>
<polygon fill="#ffffb3" stroke="black" points="406.47,-122 271.53,-122 271.53,-86 406.47,-86 406.47,-122"/>
<text text-anchor="middle" x="339" y="-99.8" font-family="Times,serif" font-size="14.00">WelcomeComponent</text>
</g>
<!-- WelcomeModule -->
<g id="node2" class="node">
<title>WelcomeModule</title>
<polygon fill="#8dd3c7" stroke="black" points="309.69,-187 306.69,-191 285.69,-191 282.69,-187 196.31,-187 196.31,-151 309.69,-151 309.69,-187"/>
<text text-anchor="middle" x="253" y="-164.8" font-family="Times,serif" font-size="14.00">WelcomeModule</text>
</g>
<!-- WelcomeComponent&#45;&gt;WelcomeModule -->
<g id="edge1" class="edge">
<title>WelcomeComponent&#45;&gt;WelcomeModule</title>
<path fill="none" stroke="black" d="M290.55,-122.11C290.55,-122.11 290.55,-140.99 290.55,-140.99"/>
<polygon fill="black" stroke="black" points="287.05,-140.99 290.55,-150.99 294.05,-140.99 287.05,-140.99"/>
</g>
<!-- WelcomeComponent  -->
<g id="node4" class="node">
<title>WelcomeComponent </title>
<polygon fill="#fb8072" stroke="black" points="322.47,-252 183.53,-252 183.53,-216 322.47,-216 322.47,-252"/>
<text text-anchor="middle" x="253" y="-229.8" font-family="Times,serif" font-size="14.00">WelcomeComponent </text>
</g>
<!-- WelcomeModule&#45;&gt;WelcomeComponent  -->
<g id="edge3" class="edge">
<title>WelcomeModule&#45;&gt;WelcomeComponent </title>
<path fill="none" stroke="black" stroke-dasharray="5,2" d="M253,-187.11C253,-187.11 253,-205.99 253,-205.99"/>
<polygon fill="black" stroke="black" points="249.5,-205.99 253,-215.99 256.5,-205.99 249.5,-205.99"/>
</g>
<!-- WelcomeRoutingModule -->
<g id="node3" class="node">
<title>WelcomeRoutingModule</title>
<polygon fill="#8dd3c7" stroke="black" points="248.31,-122 245.31,-126 224.31,-126 221.31,-122 89.69,-122 89.69,-86 248.31,-86 248.31,-122"/>
<text text-anchor="middle" x="169" y="-99.8" font-family="Times,serif" font-size="14.00">WelcomeRoutingModule</text>
</g>
<!-- WelcomeRoutingModule&#45;&gt;WelcomeModule -->
<g id="edge2" class="edge">
<title>WelcomeRoutingModule&#45;&gt;WelcomeModule</title>
<path fill="none" stroke="black" d="M222.28,-122.11C222.28,-122.11 222.28,-140.99 222.28,-140.99"/>
<polygon fill="black" stroke="black" points="218.78,-140.99 222.28,-150.99 225.78,-140.99 218.78,-140.99"/>
</g>
</g>
</svg>
