<?xml version="1.0" encoding="UTF-8" standalone="no"?>
<!DOCTYPE svg PUBLIC "-//W3C//DTD SVG 1.1//EN"
 "http://www.w3.org/Graphics/SVG/1.1/DTD/svg11.dtd">
<!-- Generated by graphviz version 2.47.0 (20210316.0004)
 -->
<!-- Title: dependencies Pages: 1 -->
<svg width="991pt" height="284pt"
 viewBox="0.00 0.00 991.00 284.00" xmlns="http://www.w3.org/2000/svg" xmlns:xlink="http://www.w3.org/1999/xlink">
<g id="graph0" class="graph" transform="scale(1 1) rotate(0) translate(4 280)">
<title>dependencies</title>
<polygon fill="white" stroke="transparent" points="-4,4 -4,-280 987,-280 987,4 -4,4"/>
<text text-anchor="start" x="470.51" y="-42.4" font-family="Times-12" font-weight="bold" font-size="14.00">Legend</text>
<polygon fill="#ffffb3" stroke="transparent" points="257.5,-10 257.5,-30 277.5,-30 277.5,-10 257.5,-10"/>
<text text-anchor="start" x="281.13" y="-15.4" font-family="Times-12" font-size="14.00"> &#160;Declarations</text>
<polygon fill="#8dd3c7" stroke="transparent" points="370.5,-10 370.5,-30 390.5,-30 390.5,-10 370.5,-10"/>
<text text-anchor="start" x="394.23" y="-15.4" font-family="Times-12" font-size="14.00"> &#160;Module</text>
<polygon fill="#80b1d3" stroke="transparent" points="456.5,-10 456.5,-30 476.5,-30 476.5,-10 456.5,-10"/>
<text text-anchor="start" x="480.28" y="-15.4" font-family="Times-12" font-size="14.00"> &#160;Bootstrap</text>
<polygon fill="#fdb462" stroke="transparent" points="553.5,-10 553.5,-30 573.5,-30 573.5,-10 553.5,-10"/>
<text text-anchor="start" x="577.17" y="-15.4" font-family="Times-12" font-size="14.00"> &#160;Providers</text>
<polygon fill="#fb8072" stroke="transparent" points="649.5,-10 649.5,-30 669.5,-30 669.5,-10 649.5,-10"/>
<text text-anchor="start" x="673.23" y="-15.4" font-family="Times-12" font-size="14.00"> &#160;Exports</text>
<g id="clust1" class="cluster">
<title>cluster_AppModule</title>
<polygon fill="none" stroke="black" stroke-dasharray="1,5" points="8,-70 8,-268 975,-268 975,-70 8,-70"/>
</g>
<g id="clust7" class="cluster">
<title>cluster_AppModule_bootstrap</title>
<polygon fill="none" stroke="black" points="440,-208 440,-260 564,-260 564,-208 440,-208"/>
</g>
<g id="clust5" class="cluster">
<title>cluster_AppModule_imports</title>
<polygon fill="none" stroke="black" points="335,-78 335,-130 967,-130 967,-78 335,-78"/>
</g>
<g id="clust2" class="cluster">
<title>cluster_AppModule_declarations</title>
<polygon fill="none" stroke="black" points="16,-78 16,-130 327,-130 327,-78 16,-78"/>
</g>
<!-- AppComponent -->
<g id="node1" class="node">
<title>AppComponent</title>
<polygon fill="#ffffb3" stroke="black" points="318.94,-122 213.06,-122 213.06,-86 318.94,-86 318.94,-122"/>
<text text-anchor="middle" x="266" y="-99.8" font-family="Times,serif" font-size="14.00">AppComponent</text>
</g>
<!-- AppModule -->
<g id="node3" class="node">
<title>AppModule</title>
<polygon fill="#8dd3c7" stroke="black" points="543.66,-187 540.66,-191 519.66,-191 516.66,-187 460.34,-187 460.34,-151 543.66,-151 543.66,-187"/>
<text text-anchor="middle" x="502" y="-164.8" font-family="Times,serif" font-size="14.00">AppModule</text>
</g>
<!-- AppComponent&#45;&gt;AppModule -->
<g id="edge1" class="edge">
<title>AppComponent&#45;&gt;AppModule</title>
<path fill="none" stroke="black" d="M266,-122.11C266,-141.34 266,-169 266,-169 266,-169 450.08,-169 450.08,-169"/>
<polygon fill="black" stroke="black" points="450.08,-172.5 460.08,-169 450.08,-165.5 450.08,-172.5"/>
</g>
<!-- LoadingSpinnerComponent -->
<g id="node2" class="node">
<title>LoadingSpinnerComponent</title>
<polygon fill="#ffffb3" stroke="black" points="195.54,-122 24.46,-122 24.46,-86 195.54,-86 195.54,-122"/>
<text text-anchor="middle" x="110" y="-99.8" font-family="Times,serif" font-size="14.00">LoadingSpinnerComponent</text>
</g>
<!-- LoadingSpinnerComponent&#45;&gt;AppModule -->
<g id="edge2" class="edge">
<title>LoadingSpinnerComponent&#45;&gt;AppModule</title>
<path fill="none" stroke="black" d="M110,-122.29C110,-144.21 110,-178 110,-178 110,-178 450.05,-178 450.05,-178"/>
<polygon fill="black" stroke="black" points="450.05,-181.5 460.05,-178 450.05,-174.5 450.05,-181.5"/>
</g>
<!-- AppComponent  -->
<g id="node9" class="node">
<title>AppComponent </title>
<polygon fill="#80b1d3" stroke="black" points="556.44,-252 447.56,-252 447.56,-216 556.44,-216 556.44,-252"/>
<text text-anchor="middle" x="502" y="-229.8" font-family="Times,serif" font-size="14.00">AppComponent </text>
</g>
<!-- AppModule&#45;&gt;AppComponent  -->
<g id="edge8" class="edge">
<title>AppModule&#45;&gt;AppComponent </title>
<path fill="none" stroke="black" stroke-dasharray="1,5" d="M502,-187.11C502,-187.11 502,-205.99 502,-205.99"/>
<polygon fill="black" stroke="black" points="498.5,-205.99 502,-215.99 505.5,-205.99 498.5,-205.99"/>
</g>
<!-- AppRoutingModule -->
<g id="node4" class="node">
<title>AppRoutingModule</title>
<polygon fill="#8dd3c7" stroke="black" points="959.27,-122 956.27,-126 935.27,-126 932.27,-122 830.73,-122 830.73,-86 959.27,-86 959.27,-122"/>
<text text-anchor="middle" x="895" y="-99.8" font-family="Times,serif" font-size="14.00">AppRoutingModule</text>
</g>
<!-- AppRoutingModule&#45;&gt;AppModule -->
<g id="edge3" class="edge">
<title>AppRoutingModule&#45;&gt;AppModule</title>
<path fill="none" stroke="black" d="M895,-122.29C895,-144.21 895,-178 895,-178 895,-178 553.69,-178 553.69,-178"/>
<polygon fill="black" stroke="black" points="553.69,-174.5 543.69,-178 553.69,-181.5 553.69,-174.5"/>
</g>
<!-- CoreModule -->
<g id="node5" class="node">
<title>CoreModule</title>
<polygon fill="#8dd3c7" stroke="black" points="812.26,-122 809.26,-126 788.26,-126 785.26,-122 725.74,-122 725.74,-86 812.26,-86 812.26,-122"/>
<text text-anchor="middle" x="769" y="-99.8" font-family="Times,serif" font-size="14.00">CoreModule</text>
</g>
<!-- CoreModule&#45;&gt;AppModule -->
<g id="edge4" class="edge">
<title>CoreModule&#45;&gt;AppModule</title>
<path fill="none" stroke="black" d="M769,-122.11C769,-141.34 769,-169 769,-169 769,-169 553.72,-169 553.72,-169"/>
<polygon fill="black" stroke="black" points="553.72,-165.5 543.72,-169 553.72,-172.5 553.72,-165.5"/>
</g>
<!-- IconsProviderModule -->
<g id="node6" class="node">
<title>IconsProviderModule</title>
<polygon fill="#8dd3c7" stroke="black" points="708.08,-122 705.08,-126 684.08,-126 681.08,-122 569.92,-122 569.92,-86 708.08,-86 708.08,-122"/>
<text text-anchor="middle" x="639" y="-99.8" font-family="Times,serif" font-size="14.00">IconsProviderModule</text>
</g>
<!-- IconsProviderModule&#45;&gt;AppModule -->
<g id="edge5" class="edge">
<title>IconsProviderModule&#45;&gt;AppModule</title>
<path fill="none" stroke="black" d="M639,-122.03C639,-138.4 639,-160 639,-160 639,-160 553.85,-160 553.85,-160"/>
<polygon fill="black" stroke="black" points="553.85,-156.5 543.85,-160 553.85,-163.5 553.85,-156.5"/>
</g>
<!-- LayoutModule -->
<g id="node7" class="node">
<title>LayoutModule</title>
<polygon fill="#8dd3c7" stroke="black" points="551.71,-122 548.71,-126 527.71,-126 524.71,-122 452.29,-122 452.29,-86 551.71,-86 551.71,-122"/>
<text text-anchor="middle" x="502" y="-99.8" font-family="Times,serif" font-size="14.00">LayoutModule</text>
</g>
<!-- LayoutModule&#45;&gt;AppModule -->
<g id="edge6" class="edge">
<title>LayoutModule&#45;&gt;AppModule</title>
<path fill="none" stroke="black" d="M502,-122.11C502,-122.11 502,-140.99 502,-140.99"/>
<polygon fill="black" stroke="black" points="498.5,-140.99 502,-150.99 505.5,-140.99 498.5,-140.99"/>
</g>
<!-- UsersModule -->
<g id="node8" class="node">
<title>UsersModule</title>
<polygon fill="#8dd3c7" stroke="black" points="434.92,-122 431.92,-126 410.92,-126 407.92,-122 343.08,-122 343.08,-86 434.92,-86 434.92,-122"/>
<text text-anchor="middle" x="389" y="-99.8" font-family="Times,serif" font-size="14.00">UsersModule</text>
</g>
<!-- UsersModule&#45;&gt;AppModule -->
<g id="edge7" class="edge">
<title>UsersModule&#45;&gt;AppModule</title>
<path fill="none" stroke="black" d="M389,-122.03C389,-138.4 389,-160 389,-160 389,-160 450.24,-160 450.24,-160"/>
<polygon fill="black" stroke="black" points="450.24,-163.5 460.24,-160 450.24,-156.5 450.24,-163.5"/>
</g>
</g>
</svg>
