<?xml version="1.0" encoding="UTF-8" standalone="no"?>
<!DOCTYPE svg PUBLIC "-//W3C//DTD SVG 1.1//EN"
 "http://www.w3.org/Graphics/SVG/1.1/DTD/svg11.dtd">
<!-- Generated by graphviz version 2.47.0 (20210316.0004)
 -->
<!-- Title: dependencies Pages: 1 -->
<svg width="632pt" height="211pt"
 viewBox="0.00 0.00 632.00 211.00" xmlns="http://www.w3.org/2000/svg" xmlns:xlink="http://www.w3.org/1999/xlink">
<g id="graph0" class="graph" transform="scale(1 1) rotate(0) translate(4 207)">
<title>dependencies</title>
<polygon fill="white" stroke="transparent" points="-4,4 -4,-207 628,-207 628,4 -4,4"/>
<text text-anchor="start" x="291.01" y="-42.4" font-family="Times-12" font-weight="bold" font-size="14.00">Legend</text>
<polygon fill="#ffffb3" stroke="transparent" points="78,-10 78,-30 98,-30 98,-10 78,-10"/>
<text text-anchor="start" x="101.63" y="-15.4" font-family="Times-12" font-size="14.00"> &#160;Declarations</text>
<polygon fill="#8dd3c7" stroke="transparent" points="191,-10 191,-30 211,-30 211,-10 191,-10"/>
<text text-anchor="start" x="214.73" y="-15.4" font-family="Times-12" font-size="14.00"> &#160;Module</text>
<polygon fill="#80b1d3" stroke="transparent" points="277,-10 277,-30 297,-30 297,-10 277,-10"/>
<text text-anchor="start" x="300.78" y="-15.4" font-family="Times-12" font-size="14.00"> &#160;Bootstrap</text>
<polygon fill="#fdb462" stroke="transparent" points="374,-10 374,-30 394,-30 394,-10 374,-10"/>
<text text-anchor="start" x="397.67" y="-15.4" font-family="Times-12" font-size="14.00"> &#160;Providers</text>
<polygon fill="#fb8072" stroke="transparent" points="470,-10 470,-30 490,-30 490,-10 470,-10"/>
<text text-anchor="start" x="493.73" y="-15.4" font-family="Times-12" font-size="14.00"> &#160;Exports</text>
<g id="clust1" class="cluster">
<title>cluster_LayoutModule</title>
<polygon fill="none" stroke="black" stroke-dasharray="1,5" points="8,-70 8,-195 616,-195 616,-70 8,-70"/>
</g>
<g id="clust2" class="cluster">
<title>cluster_LayoutModule_declarations</title>
<polygon fill="none" stroke="black" points="456,-78 456,-130 608,-130 608,-78 456,-78"/>
</g>
<g id="clust4" class="cluster">
<title>cluster_LayoutModule_imports</title>
<polygon fill="none" stroke="black" points="16,-78 16,-130 448,-130 448,-78 16,-78"/>
</g>
<!-- ContainerComponent -->
<g id="node1" class="node">
<title>ContainerComponent</title>
<polygon fill="#ffffb3" stroke="black" points="600.04,-122 463.96,-122 463.96,-86 600.04,-86 600.04,-122"/>
<text text-anchor="middle" x="532" y="-99.8" font-family="Times,serif" font-size="14.00">ContainerComponent</text>
</g>
<!-- LayoutModule -->
<g id="node2" class="node">
<title>LayoutModule</title>
<polygon fill="#8dd3c7" stroke="black" points="340.71,-187 337.71,-191 316.71,-191 313.71,-187 241.29,-187 241.29,-151 340.71,-151 340.71,-187"/>
<text text-anchor="middle" x="291" y="-164.8" font-family="Times,serif" font-size="14.00">LayoutModule</text>
</g>
<!-- ContainerComponent&#45;&gt;LayoutModule -->
<g id="edge1" class="edge">
<title>ContainerComponent&#45;&gt;LayoutModule</title>
<path fill="none" stroke="black" d="M532,-122.11C532,-141.34 532,-169 532,-169 532,-169 350.64,-169 350.64,-169"/>
<polygon fill="black" stroke="black" points="350.64,-165.5 340.64,-169 350.64,-172.5 350.64,-165.5"/>
</g>
<!-- IconsProviderModule -->
<g id="node3" class="node">
<title>IconsProviderModule</title>
<polygon fill="#8dd3c7" stroke="black" points="440.08,-122 437.08,-126 416.08,-126 413.08,-122 301.92,-122 301.92,-86 440.08,-86 440.08,-122"/>
<text text-anchor="middle" x="371" y="-99.8" font-family="Times,serif" font-size="14.00">IconsProviderModule</text>
</g>
<!-- IconsProviderModule&#45;&gt;LayoutModule -->
<g id="edge2" class="edge">
<title>IconsProviderModule&#45;&gt;LayoutModule</title>
<path fill="none" stroke="black" d="M321.28,-122.11C321.28,-122.11 321.28,-140.99 321.28,-140.99"/>
<polygon fill="black" stroke="black" points="317.78,-140.99 321.28,-150.99 324.78,-140.99 317.78,-140.99"/>
</g>
<!-- LayoutRoutingModule -->
<g id="node4" class="node">
<title>LayoutRoutingModule</title>
<polygon fill="#8dd3c7" stroke="black" points="284.33,-122 281.33,-126 260.33,-126 257.33,-122 139.67,-122 139.67,-86 284.33,-86 284.33,-122"/>
<text text-anchor="middle" x="212" y="-99.8" font-family="Times,serif" font-size="14.00">LayoutRoutingModule</text>
</g>
<!-- LayoutRoutingModule&#45;&gt;LayoutModule -->
<g id="edge3" class="edge">
<title>LayoutRoutingModule&#45;&gt;LayoutModule</title>
<path fill="none" stroke="black" d="M262.78,-122.11C262.78,-122.11 262.78,-140.99 262.78,-140.99"/>
<polygon fill="black" stroke="black" points="259.28,-140.99 262.78,-150.99 266.28,-140.99 259.28,-140.99"/>
</g>
<!-- SharedModule -->
<g id="node5" class="node">
<title>SharedModule</title>
<polygon fill="#8dd3c7" stroke="black" points="122.42,-122 119.42,-126 98.42,-126 95.42,-122 23.58,-122 23.58,-86 122.42,-86 122.42,-122"/>
<text text-anchor="middle" x="73" y="-99.8" font-family="Times,serif" font-size="14.00">SharedModule</text>
</g>
<!-- SharedModule&#45;&gt;LayoutModule -->
<g id="edge4" class="edge">
<title>SharedModule&#45;&gt;LayoutModule</title>
<path fill="none" stroke="black" d="M73,-122.11C73,-141.34 73,-169 73,-169 73,-169 231.26,-169 231.26,-169"/>
<polygon fill="black" stroke="black" points="231.26,-172.5 241.26,-169 231.26,-165.5 231.26,-172.5"/>
</g>
</g>
</svg>
