<?xml version="1.0" encoding="UTF-8" standalone="no"?>
<!DOCTYPE svg PUBLIC "-//W3C//DTD SVG 1.1//EN"
 "http://www.w3.org/Graphics/SVG/1.1/DTD/svg11.dtd">
<!-- Generated by graphviz version 2.47.0 (20210316.0004)
 -->
<!-- Title: dependencies Pages: 1 -->
<svg width="1647pt" height="425pt"
 viewBox="0.00 0.00 1647.00 425.00" xmlns="http://www.w3.org/2000/svg" xmlns:xlink="http://www.w3.org/1999/xlink">
<g id="graph0" class="graph" transform="scale(1 1) rotate(0) translate(4 421)">
<title>dependencies</title>
<polygon fill="white" stroke="transparent" points="-4,4 -4,-421 1643,-421 1643,4 -4,4"/>
<text text-anchor="start" x="798.51" y="-42.4" font-family="Times-12" font-weight="bold" font-size="14.00">Legend</text>
<polygon fill="#ffffb3" stroke="transparent" points="585.5,-10 585.5,-30 605.5,-30 605.5,-10 585.5,-10"/>
<text text-anchor="start" x="609.13" y="-15.4" font-family="Times-12" font-size="14.00"> &#160;Declarations</text>
<polygon fill="#8dd3c7" stroke="transparent" points="698.5,-10 698.5,-30 718.5,-30 718.5,-10 698.5,-10"/>
<text text-anchor="start" x="722.23" y="-15.4" font-family="Times-12" font-size="14.00"> &#160;Module</text>
<polygon fill="#80b1d3" stroke="transparent" points="784.5,-10 784.5,-30 804.5,-30 804.5,-10 784.5,-10"/>
<text text-anchor="start" x="808.28" y="-15.4" font-family="Times-12" font-size="14.00"> &#160;Bootstrap</text>
<polygon fill="#fdb462" stroke="transparent" points="881.5,-10 881.5,-30 901.5,-30 901.5,-10 881.5,-10"/>
<text text-anchor="start" x="905.17" y="-15.4" font-family="Times-12" font-size="14.00"> &#160;Providers</text>
<polygon fill="#fb8072" stroke="transparent" points="977.5,-10 977.5,-30 997.5,-30 997.5,-10 977.5,-10"/>
<text text-anchor="start" x="1001.23" y="-15.4" font-family="Times-12" font-size="14.00"> &#160;Exports</text>
<g id="clust1" class="cluster">
<title>cluster_AppModule</title>
<polygon fill="none" stroke="black" stroke-dasharray="1,5" points="380,-146 380,-409 1229,-409 1229,-146 380,-146"/>
</g>
<g id="clust2" class="cluster">
<title>cluster_AppModule_declarations</title>
<polygon fill="none" stroke="black" points="910,-219 910,-271 1221,-271 1221,-219 910,-219"/>
</g>
<g id="clust5" class="cluster">
<title>cluster_AppModule_imports</title>
<polygon fill="none" stroke="black" points="388,-154 388,-271 902,-271 902,-154 388,-154"/>
</g>
<g id="clust7" class="cluster">
<title>cluster_AppModule_bootstrap</title>
<polygon fill="none" stroke="black" points="713,-349 713,-401 837,-401 837,-349 713,-349"/>
</g>
<g id="clust15" class="cluster">
<title>cluster_CoreModule</title>
<polygon fill="none" stroke="black" stroke-dasharray="1,5" points="8,-70 8,-138 310,-138 310,-70 8,-70"/>
</g>
<g id="clust20" class="cluster">
<title>cluster_CoreModule_providers</title>
<polygon fill="none" stroke="black" points="16,-78 16,-130 302,-130 302,-78 16,-78"/>
</g>
<g id="clust33" class="cluster">
<title>cluster_LayoutModule</title>
<polygon fill="none" stroke="black" stroke-dasharray="1,5" points="823,-70 823,-138 1275,-138 1275,-70 823,-70"/>
</g>
<g id="clust34" class="cluster">
<title>cluster_LayoutModule_declarations</title>
<polygon fill="none" stroke="black" points="831,-78 831,-130 983,-130 983,-78 831,-78"/>
</g>
<g id="clust36" class="cluster">
<title>cluster_LayoutModule_imports</title>
<polygon fill="none" stroke="black" points="991,-78 991,-130 1267,-130 1267,-78 991,-78"/>
</g>
<g id="clust52" class="cluster">
<title>cluster_UsersModule</title>
<polygon fill="none" stroke="black" stroke-dasharray="1,5" points="318,-70 318,-138 815,-138 815,-70 318,-70"/>
</g>
<g id="clust53" class="cluster">
<title>cluster_UsersModule_declarations</title>
<polygon fill="none" stroke="black" points="486,-78 486,-130 807,-130 807,-78 486,-78"/>
</g>
<g id="clust56" class="cluster">
<title>cluster_UsersModule_imports</title>
<polygon fill="none" stroke="black" points="326,-78 326,-130 478,-130 478,-78 326,-78"/>
</g>
<g id="clust66" class="cluster">
<title>cluster_WelcomeModule</title>
<polygon fill="none" stroke="black" stroke-dasharray="1,5" points="1283,-70 1283,-279 1631,-279 1631,-70 1283,-70"/>
</g>
<g id="clust67" class="cluster">
<title>cluster_WelcomeModule_declarations</title>
<polygon fill="none" stroke="black" points="1473,-78 1473,-130 1623,-130 1623,-78 1473,-78"/>
</g>
<g id="clust69" class="cluster">
<title>cluster_WelcomeModule_imports</title>
<polygon fill="none" stroke="black" points="1291,-78 1291,-130 1465,-130 1465,-78 1291,-78"/>
</g>
<g id="clust70" class="cluster">
<title>cluster_WelcomeModule_exports</title>
<polygon fill="none" stroke="black" points="1385,-219 1385,-271 1539,-271 1539,-219 1385,-219"/>
</g>
<!-- AppComponent -->
<g id="node1" class="node">
<title>AppComponent</title>
<polygon fill="#ffffb3" stroke="black" points="1212.94,-263 1107.06,-263 1107.06,-227 1212.94,-227 1212.94,-263"/>
<text text-anchor="middle" x="1160" y="-240.8" font-family="Times,serif" font-size="14.00">AppComponent</text>
</g>
<!-- AppModule -->
<g id="node3" class="node">
<title>AppModule</title>
<polygon fill="#8dd3c7" stroke="black" points="816.66,-328 813.66,-332 792.66,-332 789.66,-328 733.34,-328 733.34,-292 816.66,-292 816.66,-328"/>
<text text-anchor="middle" x="775" y="-305.8" font-family="Times,serif" font-size="14.00">AppModule</text>
</g>
<!-- AppComponent&#45;&gt;AppModule -->
<g id="edge1" class="edge">
<title>AppComponent&#45;&gt;AppModule</title>
<path fill="none" stroke="black" d="M1160,-263.28C1160,-284.32 1160,-316 1160,-316 1160,-316 826.93,-316 826.93,-316"/>
<polygon fill="black" stroke="black" points="826.93,-312.5 816.93,-316 826.93,-319.5 826.93,-312.5"/>
</g>
<!-- LoadingSpinnerComponent -->
<g id="node2" class="node">
<title>LoadingSpinnerComponent</title>
<polygon fill="#ffffb3" stroke="black" points="1089.54,-263 918.46,-263 918.46,-227 1089.54,-227 1089.54,-263"/>
<text text-anchor="middle" x="1004" y="-240.8" font-family="Times,serif" font-size="14.00">LoadingSpinnerComponent</text>
</g>
<!-- LoadingSpinnerComponent&#45;&gt;AppModule -->
<g id="edge2" class="edge">
<title>LoadingSpinnerComponent&#45;&gt;AppModule</title>
<path fill="none" stroke="black" d="M1004,-263.02C1004,-280.37 1004,-304 1004,-304 1004,-304 826.74,-304 826.74,-304"/>
<polygon fill="black" stroke="black" points="826.74,-300.5 816.74,-304 826.74,-307.5 826.74,-300.5"/>
</g>
<!-- AppComponent  -->
<g id="node9" class="node">
<title>AppComponent </title>
<polygon fill="#80b1d3" stroke="black" points="829.44,-393 720.56,-393 720.56,-357 829.44,-357 829.44,-393"/>
<text text-anchor="middle" x="775" y="-370.8" font-family="Times,serif" font-size="14.00">AppComponent </text>
</g>
<!-- AppModule&#45;&gt;AppComponent  -->
<g id="edge8" class="edge">
<title>AppModule&#45;&gt;AppComponent </title>
<path fill="none" stroke="black" stroke-dasharray="1,5" d="M775,-328.11C775,-328.11 775,-346.99 775,-346.99"/>
<polygon fill="black" stroke="black" points="771.5,-346.99 775,-356.99 778.5,-346.99 771.5,-346.99"/>
</g>
<!-- AppRoutingModule -->
<g id="node4" class="node">
<title>AppRoutingModule</title>
<polygon fill="#8dd3c7" stroke="black" points="738.27,-198 735.27,-202 714.27,-202 711.27,-198 609.73,-198 609.73,-162 738.27,-162 738.27,-198"/>
<text text-anchor="middle" x="674" y="-175.8" font-family="Times,serif" font-size="14.00">AppRoutingModule</text>
</g>
<!-- AppRoutingModule&#45;&gt;AppModule -->
<g id="edge3" class="edge">
<title>AppRoutingModule&#45;&gt;AppModule</title>
<path fill="none" stroke="black" d="M726.85,-198.17C726.85,-235.85 726.85,-319 726.85,-319 726.85,-319 727.48,-319 727.48,-319"/>
<polygon fill="black" stroke="black" points="723.15,-322.5 733.15,-319 723.15,-315.5 723.15,-322.5"/>
</g>
<!-- CoreModule -->
<g id="node5" class="node">
<title>CoreModule</title>
<polygon fill="#8dd3c7" stroke="black" points="482.26,-198 479.26,-202 458.26,-202 455.26,-198 395.74,-198 395.74,-162 482.26,-162 482.26,-198"/>
<text text-anchor="middle" x="439" y="-175.8" font-family="Times,serif" font-size="14.00">CoreModule</text>
</g>
<!-- CoreModule&#45;&gt;AppModule -->
<g id="edge4" class="edge">
<title>CoreModule&#45;&gt;AppModule</title>
<path fill="none" stroke="black" d="M439,-198.08C439,-233.8 439,-310 439,-310 439,-310 723.12,-310 723.12,-310"/>
<polygon fill="black" stroke="black" points="723.12,-313.5 733.12,-310 723.12,-306.5 723.12,-313.5"/>
</g>
<!-- IconsProviderModule -->
<g id="node6" class="node">
<title>IconsProviderModule</title>
<polygon fill="#8dd3c7" stroke="black" points="894.08,-198 891.08,-202 870.08,-202 867.08,-198 755.92,-198 755.92,-162 894.08,-162 894.08,-198"/>
<text text-anchor="middle" x="825" y="-175.8" font-family="Times,serif" font-size="14.00">IconsProviderModule</text>
</g>
<!-- IconsProviderModule&#45;&gt;AppModule -->
<g id="edge5" class="edge">
<title>IconsProviderModule&#45;&gt;AppModule</title>
<path fill="none" stroke="black" d="M775.18,-198.08C775.18,-198.08 775.18,-281.66 775.18,-281.66"/>
<polygon fill="black" stroke="black" points="771.68,-281.66 775.18,-291.66 778.68,-281.66 771.68,-281.66"/>
</g>
<!-- LayoutModule -->
<g id="node7" class="node">
<title>LayoutModule</title>
<polygon fill="#8dd3c7" stroke="black" points="893.71,-263 890.71,-267 869.71,-267 866.71,-263 794.29,-263 794.29,-227 893.71,-227 893.71,-263"/>
<text text-anchor="middle" x="844" y="-240.8" font-family="Times,serif" font-size="14.00">LayoutModule</text>
</g>
<!-- IconsProviderModule&#45;&gt;LayoutModule -->
<g id="edge13" class="edge">
<title>IconsProviderModule&#45;&gt;LayoutModule</title>
<path fill="none" stroke="black" d="M819.2,-198.11C819.2,-198.11 819.2,-216.99 819.2,-216.99"/>
<polygon fill="black" stroke="black" points="815.7,-216.99 819.2,-226.99 822.7,-216.99 815.7,-216.99"/>
</g>
<!-- LayoutModule&#45;&gt;AppModule -->
<g id="edge6" class="edge">
<title>LayoutModule&#45;&gt;AppModule</title>
<path fill="none" stroke="black" d="M805.61,-263.11C805.61,-263.11 805.61,-281.99 805.61,-281.99"/>
<polygon fill="black" stroke="black" points="802.11,-281.99 805.61,-291.99 809.11,-281.99 802.11,-281.99"/>
</g>
<!-- UsersModule -->
<g id="node8" class="node">
<title>UsersModule</title>
<polygon fill="#8dd3c7" stroke="black" points="591.92,-198 588.92,-202 567.92,-202 564.92,-198 500.08,-198 500.08,-162 591.92,-162 591.92,-198"/>
<text text-anchor="middle" x="546" y="-175.8" font-family="Times,serif" font-size="14.00">UsersModule</text>
</g>
<!-- UsersModule&#45;&gt;AppModule -->
<g id="edge7" class="edge">
<title>UsersModule&#45;&gt;AppModule</title>
<path fill="none" stroke="black" d="M546,-198.11C546,-231.87 546,-301 546,-301 546,-301 723.26,-301 723.26,-301"/>
<polygon fill="black" stroke="black" points="723.26,-304.5 733.26,-301 723.26,-297.5 723.26,-304.5"/>
</g>
<!-- HTTPListener -->
<g id="node10" class="node">
<title>HTTPListener</title>
<ellipse fill="#fdb462" stroke="black" cx="227" cy="-104" rx="66.63" ry="18"/>
<text text-anchor="middle" x="227" y="-99.8" font-family="Times,serif" font-size="14.00">HTTPListener</text>
</g>
<!-- HTTPListener&#45;&gt;CoreModule -->
<g id="edge9" class="edge">
<title>HTTPListener&#45;&gt;CoreModule</title>
<path fill="none" stroke="black" d="M204.73,-121.25C204.73,-143.67 204.73,-180 204.73,-180 204.73,-180 385.48,-180 385.48,-180"/>
<polygon fill="black" stroke="black" points="385.48,-183.5 395.48,-180 385.48,-176.5 385.48,-183.5"/>
</g>
<!-- HTTPListener&#45;&gt;CoreModule -->
<g id="edge10" class="edge">
<title>HTTPListener&#45;&gt;CoreModule</title>
<path fill="none" stroke="black" d="M249.27,-121.25C249.27,-141.11 249.27,-171 249.27,-171 249.27,-171 385.47,-171 385.47,-171"/>
<polygon fill="black" stroke="black" points="385.47,-174.5 395.47,-171 385.47,-167.5 385.47,-174.5"/>
</g>
<!-- HTTPStatus -->
<g id="node11" class="node">
<title>HTTPStatus</title>
<ellipse fill="#fdb462" stroke="black" cx="83" cy="-104" rx="58.56" ry="18"/>
<text text-anchor="middle" x="83" y="-99.8" font-family="Times,serif" font-size="14.00">HTTPStatus</text>
</g>
<!-- HTTPStatus&#45;&gt;CoreModule -->
<g id="edge11" class="edge">
<title>HTTPStatus&#45;&gt;CoreModule</title>
<path fill="none" stroke="black" d="M83,-122.03C83,-146.98 83,-189 83,-189 83,-189 385.7,-189 385.7,-189"/>
<polygon fill="black" stroke="black" points="385.7,-192.5 395.7,-189 385.7,-185.5 385.7,-192.5"/>
</g>
<!-- ContainerComponent -->
<g id="node12" class="node">
<title>ContainerComponent</title>
<polygon fill="#ffffb3" stroke="black" points="975.04,-122 838.96,-122 838.96,-86 975.04,-86 975.04,-122"/>
<text text-anchor="middle" x="907" y="-99.8" font-family="Times,serif" font-size="14.00">ContainerComponent</text>
</g>
<!-- ContainerComponent&#45;&gt;LayoutModule -->
<g id="edge12" class="edge">
<title>ContainerComponent&#45;&gt;LayoutModule</title>
<path fill="none" stroke="black" d="M906.13,-122.14C906.13,-160.23 906.13,-245 906.13,-245 906.13,-245 903.86,-245 903.86,-245"/>
<polygon fill="black" stroke="black" points="903.86,-241.5 893.86,-245 903.86,-248.5 903.86,-241.5"/>
</g>
<!-- LayoutRoutingModule -->
<g id="node13" class="node">
<title>LayoutRoutingModule</title>
<polygon fill="#8dd3c7" stroke="black" points="1259.33,-122 1256.33,-126 1235.33,-126 1232.33,-122 1114.67,-122 1114.67,-86 1259.33,-86 1259.33,-122"/>
<text text-anchor="middle" x="1187" y="-99.8" font-family="Times,serif" font-size="14.00">LayoutRoutingModule</text>
</g>
<!-- LayoutRoutingModule&#45;&gt;LayoutModule -->
<g id="edge14" class="edge">
<title>LayoutRoutingModule&#45;&gt;LayoutModule</title>
<path fill="none" stroke="black" d="M1163.78,-122.06C1163.78,-154.21 1163.78,-218 1163.78,-218 1163.78,-218 868.8,-218 868.8,-218 868.8,-218 868.8,-218.88 868.8,-218.88"/>
<polygon fill="black" stroke="black" points="865.3,-216.84 868.8,-226.84 872.3,-216.84 865.3,-216.84"/>
</g>
<!-- SharedModule -->
<g id="node14" class="node">
<title>SharedModule</title>
<polygon fill="#8dd3c7" stroke="black" points="1097.42,-122 1094.42,-126 1073.42,-126 1070.42,-122 998.58,-122 998.58,-86 1097.42,-86 1097.42,-122"/>
<text text-anchor="middle" x="1048" y="-99.8" font-family="Times,serif" font-size="14.00">SharedModule</text>
</g>
<!-- SharedModule&#45;&gt;LayoutModule -->
<g id="edge15" class="edge">
<title>SharedModule&#45;&gt;LayoutModule</title>
<path fill="none" stroke="black" d="M1059.44,-122.12C1059.44,-151.91 1059.44,-208 1059.44,-208 1059.44,-208 844,-208 844,-208 844,-208 844,-216.93 844,-216.93"/>
<polygon fill="black" stroke="black" points="840.5,-216.93 844,-226.93 847.5,-216.93 840.5,-216.93"/>
</g>
<!-- SharedModule&#45;&gt;UsersModule -->
<g id="edge18" class="edge">
<title>SharedModule&#45;&gt;UsersModule</title>
<path fill="none" stroke="black" d="M1029.12,-122.04C1029.12,-134.56 1029.12,-149 1029.12,-149 1029.12,-149 568.86,-149 568.86,-149 568.86,-149 568.86,-151.97 568.86,-151.97"/>
<polygon fill="black" stroke="black" points="565.36,-151.97 568.86,-161.97 572.36,-151.97 565.36,-151.97"/>
</g>
<!-- UsersDetailsComponent -->
<g id="node15" class="node">
<title>UsersDetailsComponent</title>
<polygon fill="#ffffb3" stroke="black" points="799.36,-122 646.64,-122 646.64,-86 799.36,-86 799.36,-122"/>
<text text-anchor="middle" x="723" y="-99.8" font-family="Times,serif" font-size="14.00">UsersDetailsComponent</text>
</g>
<!-- UsersDetailsComponent&#45;&gt;UsersModule -->
<g id="edge16" class="edge">
<title>UsersDetailsComponent&#45;&gt;UsersModule</title>
<path fill="none" stroke="black" d="M692.48,-122.24C692.48,-129.43 692.48,-136 692.48,-136 692.48,-136 546,-136 546,-136 546,-136 546,-151.85 546,-151.85"/>
<polygon fill="black" stroke="black" points="542.5,-151.85 546,-161.85 549.5,-151.85 542.5,-151.85"/>
</g>
<!-- UsersListComponent -->
<g id="node16" class="node">
<title>UsersListComponent</title>
<polygon fill="#ffffb3" stroke="black" points="628.48,-122 493.52,-122 493.52,-86 628.48,-86 628.48,-122"/>
<text text-anchor="middle" x="561" y="-99.8" font-family="Times,serif" font-size="14.00">UsersListComponent</text>
</g>
<!-- UsersListComponent&#45;&gt;UsersModule -->
<g id="edge17" class="edge">
<title>UsersListComponent&#45;&gt;UsersModule</title>
<path fill="none" stroke="black" d="M523.14,-122.01C523.14,-122.01 523.14,-151.85 523.14,-151.85"/>
<polygon fill="black" stroke="black" points="519.64,-151.85 523.14,-161.85 526.64,-151.85 519.64,-151.85"/>
</g>
<!-- UsersRoutingModule -->
<g id="node17" class="node">
<title>UsersRoutingModule</title>
<polygon fill="#8dd3c7" stroke="black" points="470.04,-122 467.04,-126 446.04,-126 443.04,-122 333.96,-122 333.96,-86 470.04,-86 470.04,-122"/>
<text text-anchor="middle" x="402" y="-99.8" font-family="Times,serif" font-size="14.00">UsersRoutingModule</text>
</g>
<!-- UsersRoutingModule&#45;&gt;UsersModule -->
<g id="edge19" class="edge">
<title>UsersRoutingModule&#45;&gt;UsersModule</title>
<path fill="none" stroke="black" d="M470.14,-104C480.57,-104 487.94,-104 487.94,-104 487.94,-104 487.94,-180 487.94,-180 487.94,-180 490.26,-180 490.26,-180"/>
<polygon fill="black" stroke="black" points="490.26,-183.5 500.26,-180 490.26,-176.5 490.26,-183.5"/>
</g>
<!-- WelcomeComponent -->
<g id="node18" class="node">
<title>WelcomeComponent</title>
<polygon fill="#ffffb3" stroke="black" points="1615.47,-122 1480.53,-122 1480.53,-86 1615.47,-86 1615.47,-122"/>
<text text-anchor="middle" x="1548" y="-99.8" font-family="Times,serif" font-size="14.00">WelcomeComponent</text>
</g>
<!-- WelcomeModule -->
<g id="node19" class="node">
<title>WelcomeModule</title>
<polygon fill="#8dd3c7" stroke="black" points="1518.69,-198 1515.69,-202 1494.69,-202 1491.69,-198 1405.31,-198 1405.31,-162 1518.69,-162 1518.69,-198"/>
<text text-anchor="middle" x="1462" y="-175.8" font-family="Times,serif" font-size="14.00">WelcomeModule</text>
</g>
<!-- WelcomeComponent&#45;&gt;WelcomeModule -->
<g id="edge20" class="edge">
<title>WelcomeComponent&#45;&gt;WelcomeModule</title>
<path fill="none" stroke="black" d="M1499.55,-122.01C1499.55,-122.01 1499.55,-151.85 1499.55,-151.85"/>
<polygon fill="black" stroke="black" points="1496.05,-151.85 1499.55,-161.85 1503.05,-151.85 1496.05,-151.85"/>
</g>
<!-- WelcomeComponent  -->
<g id="node21" class="node">
<title>WelcomeComponent </title>
<polygon fill="#fb8072" stroke="black" points="1531.47,-263 1392.53,-263 1392.53,-227 1531.47,-227 1531.47,-263"/>
<text text-anchor="middle" x="1462" y="-240.8" font-family="Times,serif" font-size="14.00">WelcomeComponent </text>
</g>
<!-- WelcomeModule&#45;&gt;WelcomeComponent  -->
<g id="edge22" class="edge">
<title>WelcomeModule&#45;&gt;WelcomeComponent </title>
<path fill="none" stroke="black" stroke-dasharray="5,2" d="M1462,-198.11C1462,-198.11 1462,-216.99 1462,-216.99"/>
<polygon fill="black" stroke="black" points="1458.5,-216.99 1462,-226.99 1465.5,-216.99 1458.5,-216.99"/>
</g>
<!-- WelcomeRoutingModule -->
<g id="node20" class="node">
<title>WelcomeRoutingModule</title>
<polygon fill="#8dd3c7" stroke="black" points="1457.31,-122 1454.31,-126 1433.31,-126 1430.31,-122 1298.69,-122 1298.69,-86 1457.31,-86 1457.31,-122"/>
<text text-anchor="middle" x="1378" y="-99.8" font-family="Times,serif" font-size="14.00">WelcomeRoutingModule</text>
</g>
<!-- WelcomeRoutingModule&#45;&gt;WelcomeModule -->
<g id="edge21" class="edge">
<title>WelcomeRoutingModule&#45;&gt;WelcomeModule</title>
<path fill="none" stroke="black" d="M1431.28,-122.01C1431.28,-122.01 1431.28,-151.85 1431.28,-151.85"/>
<polygon fill="black" stroke="black" points="1427.78,-151.85 1431.28,-161.85 1434.78,-151.85 1427.78,-151.85"/>
</g>
</g>
</svg>
